<?xml version="1.0" encoding="UTF-8" standalone="no"?>
<!-- Created with Inkscape (http://www.inkscape.org/) -->
<svg
   xmlns:dc="http://purl.org/dc/elements/1.1/"
   xmlns:cc="http://creativecommons.org/ns#"
   xmlns:rdf="http://www.w3.org/1999/02/22-rdf-syntax-ns#"
   xmlns:svg="http://www.w3.org/2000/svg"
   xmlns="http://www.w3.org/2000/svg"
   xmlns:sodipodi="http://sodipodi.sourceforge.net/DTD/sodipodi-0.dtd"
   xmlns:inkscape="http://www.inkscape.org/namespaces/inkscape"
   width="16"
   height="16"
   id="svg2"
   sodipodi:version="0.32"
   inkscape:version="0.46"
   version="1.0"
   inkscape:export-filename="/home/srikanth/favicon.ico.png"
   inkscape:export-xdpi="90"
   inkscape:export-ydpi="90"
   sodipodi:docname="favicon.svg"
   inkscape:output_extension="org.inkscape.output.svg.inkscape">
  <defs
     id="defs4">
    <inkscape:perspective
       sodipodi:type="inkscape:persp3d"
       inkscape:vp_x="0 : 526.18109 : 1"
       inkscape:vp_y="0 : 1000 : 0"
       inkscape:vp_z="744.09448 : 526.18109 : 1"
       inkscape:persp3d-origin="372.04724 : 350.78739 : 1"
       id="perspective10" />
  </defs>
  <sodipodi:namedview
     id="base"
     pagecolor="#ffffff"
     bordercolor="#666666"
     borderopacity="1.0"
     gridtolerance="10"
     guidetolerance="10"
     objecttolerance="10"
     inkscape:pageopacity="0.0"
     inkscape:pageshadow="2"
     inkscape:zoom="47.625"
     inkscape:cx="8"
     inkscape:cy="8"
     inkscape:document-units="px"
     inkscape:current-layer="layer1"
     showgrid="true"
     inkscape:window-width="1280"
     inkscape:window-height="977"
     inkscape:window-x="0"
     inkscape:window-y="28">
    <inkscape:grid
       type="xygrid"
       id="grid3153"
       visible="true"
       enabled="true" />
  </sodipodi:namedview>
  <metadata
     id="metadata7">
    <rdf:RDF>
      <cc:Work
         rdf:about="">
        <dc:format>image/svg+xml</dc:format>
        <dc:type
           rdf:resource="http://purl.org/dc/dcmitype/StillImage" />
      </cc:Work>
    </rdf:RDF>
  </metadata>
  <g
     inkscape:label="Layer 1"
     inkscape:groupmode="layer"
     id="layer1">
    <path
       style="fill:#008000;fill-opacity:1;stroke:none;stroke-width:1.10000000000000009;stroke-miterlimit:4;stroke-dasharray:none;stroke-opacity:1"
       d="M 8 0 C 6.1559866 9.8901747e-16 4.4472333 0.60675043 3.09375 1.65625 L 4.53125 3.125 C 5.5131759 2.4238854 6.7023613 2 8 2 C 9.2976387 2 10.486824 2.4238854 11.46875 3.125 L 12.90625 1.65625 C 11.552767 0.60675043 9.8440134 -4.9450873e-16 8 0 z M 1.65625 3.09375 C 0.60675043 4.4472333 0 6.1559866 0 8 C 0 9.8440134 0.60675043 11.552767 1.65625 12.90625 L 3.125 11.46875 C 2.4238854 10.486824 2 9.2976387 2 8 C 2 6.7023613 2.4238854 5.5131759 3.125 4.53125 L 1.65625 3.09375 z M 14.34375 3.09375 L 12.875 4.53125 C 13.576115 5.5131759 14 6.7023613 14 8 C 14 9.2976387 13.576115 10.486824 12.875 11.46875 L 14.34375 12.90625 C 15.39325 11.552767 16 9.8440134 16 8 C 16 6.1559866 15.39325 4.4472333 14.34375 3.09375 z M 4.53125 12.875 L 3.09375 14.34375 C 4.4472333 15.39325 6.1559866 16 8 16 C 9.8440134 16 11.552767 15.39325 12.90625 14.34375 L 11.46875 12.875 C 10.486824 13.576115 9.2976387 14 8 14 C 6.7023613 14 5.5131759 13.576115 4.53125 12.875 z "
       id="path3157" />
    <rect
       style="fill:#008001;fill-opacity:1;stroke:none;stroke-width:1.10000001999999997;stroke-miterlimit:4;stroke-dasharray:none;stroke-opacity:1"
       id="rect3177"
       width="14"
       height="2"
       x="1"
       y="7" />
    <rect
       y="-9"
       x="1"
       height="2"
       width="14"
       id="rect3179"
       style="fill:#008001;fill-opacity:1;stroke:none;stroke-width:1.10000002;stroke-miterlimit:4;stroke-dasharray:none;stroke-opacity:1"
       transform="matrix(0,1,-1,0,0,0)" />
    <path
       style="fill:#800000;fill-opacity:1;stroke:none;stroke-width:1.10000001999999997;stroke-miterlimit:4;stroke-dasharray:none;stroke-opacity:1"
       d="M 8 3 C 5.24 3 3 5.24 3 8 C 3 10.76 5.24 13 8 13 C 10.76 13 13 10.76 13 8 C 13 5.24 10.76 3 8 3 z M 8 5 C 9.656 5 11 6.344 11 8 C 11 9.656 9.656 11 8 11 C 6.344 11 5 9.656 5 8 C 5 6.344 6.344 5 8 5 z "
       id="path3181" />
  </g>
</svg>
